<?xml version="1.0" encoding="UTF-8"?>
<svg version="1.1" xmlns="http://www.w3.org/2000/svg" width="200" height="200">
<path d="M0 0 C1.5107066 -0.00571291 3.02140889 -0.01268071 4.53210449 -0.02079773 C8.60863017 -0.0386422 12.68493958 -0.03757736 16.76149249 -0.03185534 C20.17581398 -0.02875097 23.59009467 -0.03486973 27.00441033 -0.04089409 C35.06433586 -0.05490896 43.12415533 -0.05340328 51.18408203 -0.04199219 C59.4752653 -0.03051247 67.76612504 -0.04459103 76.0572657 -0.07138866 C83.19900446 -0.09359973 90.34064206 -0.10017094 97.48241287 -0.09431225 C101.73770246 -0.09095455 105.99278471 -0.09327832 110.24804497 -0.11056328 C114.25130045 -0.12611709 118.25407936 -0.1219844 122.25731659 -0.10325813 C123.71851834 -0.09959551 125.17975607 -0.10261211 126.64092445 -0.11314392 C135.51481815 -0.1721765 145.31034132 -0.14794994 152.51682186 5.81591129 C156.29736361 10.06794396 158.05509496 14.6008269 158.07821655 20.22795105 C158.09101151 21.64278275 158.09101151 21.64278275 158.10406494 23.0861969 C158.10270538 24.62061684 158.10270538 24.62061684 158.10131836 26.18603516 C158.10803558 27.27285583 158.11475281 28.35967651 158.12167358 29.47943115 C158.14067235 33.07284112 158.14457909 36.66606441 158.14672852 40.25952148 C158.15315629 42.76190772 158.15988464 45.2642932 158.16690063 47.76667786 C158.17887893 53.01471158 158.18266673 58.26269808 158.18139648 63.51074219 C158.1803296 68.88911796 158.19438082 74.26720598 158.22241211 79.64550781 C158.25581711 86.14819879 158.26950551 92.65063158 158.26817703 99.15340614 C158.270531 101.62643201 158.27934289 104.09946077 158.29484177 106.57243919 C158.31453647 110.04028993 158.3086486 113.50723085 158.29663086 116.97509766 C158.30786987 117.98792313 158.31910889 119.0007486 158.33068848 120.04426575 C158.26617653 127.40613942 157.06937962 134.58599431 152.14862633 140.35159588 C145.30901755 147.03881177 136.10418554 146.71919725 127.09204102 146.81811523 C125.99355835 146.83748138 124.89507568 146.85684753 123.76330566 146.87680054 C120.27921135 146.93624136 116.79508336 146.98283941 113.31079102 147.02905273 C110.93838134 147.06726518 108.56598505 147.10631878 106.19360352 147.14624023 C100.39944234 147.24191367 94.60521627 147.32607524 88.81079102 147.40405273 C89.80079102 152.84905273 89.80079102 152.84905273 90.81079102 158.40405273 C92.13079102 158.73405273 93.45079102 159.06405273 94.81079102 159.40405273 C97.27566628 161.77763633 97.85417477 163.56601876 98.74829102 166.90405273 C98.81079102 170.40405273 98.81079102 170.40405273 97.06079102 172.77905273 C93.36868401 175.44557446 90.38097649 175.53997804 85.94995117 175.58105469 C84.74505035 175.59388992 83.54014954 175.60672516 82.29873657 175.61994934 C80.99560516 175.62733627 79.69247375 175.63472321 78.34985352 175.64233398 C77.68585918 175.64640951 77.02186485 175.65048504 76.33774948 175.65468407 C72.82420922 175.67552052 69.31070776 175.68983349 65.79711914 175.69921875 C62.17321887 175.71028735 58.54993194 175.74469821 54.92624855 175.78439045 C52.1346423 175.81056276 49.34318223 175.81891098 46.55146408 175.82250023 C44.56779991 175.82972312 42.58423572 175.85615667 40.60073853 175.88288879 C39.38953339 175.87996323 38.17832825 175.87703766 36.93041992 175.87402344 C35.86691315 175.87988968 34.80340637 175.88575592 33.70767212 175.89179993 C30.05864517 175.27741412 28.38855953 174.02108764 25.81079102 171.40405273 C25.13173872 167.25428873 25.3282918 165.20821809 27.49829102 161.59155273 C29.81079102 159.40405273 29.81079102 159.40405273 32.43579102 158.71655273 C35.03681973 157.64419802 35.03681973 157.64419802 35.48022461 155.08837891 C35.6382959 154.17548096 35.79636719 153.26258301 35.95922852 152.32202148 C36.12342285 151.40573975 36.28761719 150.48945801 36.45678711 149.54541016 C36.5736084 148.83876221 36.69042969 148.13211426 36.81079102 147.40405273 C36.15933105 147.40928955 35.50787109 147.41452637 34.83666992 147.41992188 C22.15821523 147.50727561 9.4845628 147.47362562 -3.18920898 147.09155273 C-4.24285645 147.06907471 -5.29650391 147.04659668 -6.38208008 147.0234375 C-14.13338385 146.75045196 -22.62707067 146.15129301 -28.62670898 140.71655273 C-34.24667065 134.00854132 -34.62859279 126.84116226 -34.57739258 118.46508789 C-34.58264954 117.39733627 -34.58790649 116.32958466 -34.59332275 115.22947693 C-34.60647266 111.71720535 -34.59780084 108.20539104 -34.58764648 104.69311523 C-34.58966895 102.23985711 -34.59258182 99.78659958 -34.59634399 97.33334351 C-34.60076084 92.19734968 -34.5943578 87.06151266 -34.58032227 81.92553711 C-34.56324911 75.35978998 -34.57306414 68.7944113 -34.59103966 62.22867775 C-34.60191007 57.16359715 -34.59841587 52.09860304 -34.59065628 47.03351974 C-34.58866235 44.61353893 -34.59108504 42.19355013 -34.59809494 39.77357864 C-34.60576089 36.38277823 -34.59403198 32.99256372 -34.57739258 29.60180664 C-34.58346527 28.61239578 -34.58953796 27.62298492 -34.59579468 26.60359192 C-34.52657915 18.94394601 -33.80602435 11.40381668 -28.62670898 5.46655273 C-20.15177186 -0.39230058 -9.87216339 -0.03393179 0 0 Z " fill="#333C59" transform="translate(38.189208984375,18.595947265625)"/>
<path d="M0 0 C1.5107066 -0.00571291 3.02140889 -0.01268071 4.53210449 -0.02079773 C8.60863017 -0.0386422 12.68493958 -0.03757736 16.76149249 -0.03185534 C20.17581398 -0.02875097 23.59009467 -0.03486973 27.00441033 -0.04089409 C35.06433586 -0.05490896 43.12415533 -0.05340328 51.18408203 -0.04199219 C59.4752653 -0.03051247 67.76612504 -0.04459103 76.0572657 -0.07138866 C83.19900446 -0.09359973 90.34064206 -0.10017094 97.48241287 -0.09431225 C101.73770246 -0.09095455 105.99278471 -0.09327832 110.24804497 -0.11056328 C114.25130045 -0.12611709 118.25407936 -0.1219844 122.25731659 -0.10325813 C123.71851834 -0.09959551 125.17975607 -0.10261211 126.64092445 -0.11314392 C135.51481815 -0.1721765 145.31034132 -0.14794994 152.51682186 5.81591129 C156.29736361 10.06794396 158.05509496 14.6008269 158.07821655 20.22795105 C158.09101151 21.64278275 158.09101151 21.64278275 158.10406494 23.0861969 C158.10270538 24.62061684 158.10270538 24.62061684 158.10131836 26.18603516 C158.10803558 27.27285583 158.11475281 28.35967651 158.12167358 29.47943115 C158.14067235 33.07284112 158.14457909 36.66606441 158.14672852 40.25952148 C158.15315629 42.76190772 158.15988464 45.2642932 158.16690063 47.76667786 C158.17887893 53.01471158 158.18266673 58.26269808 158.18139648 63.51074219 C158.1803296 68.88911796 158.19438082 74.26720598 158.22241211 79.64550781 C158.25581711 86.14819879 158.26950551 92.65063158 158.26817703 99.15340614 C158.270531 101.62643201 158.27934289 104.09946077 158.29484177 106.57243919 C158.31453647 110.04028993 158.3086486 113.50723085 158.29663086 116.97509766 C158.30786987 117.98792313 158.31910889 119.0007486 158.33068848 120.04426575 C158.26617653 127.40613942 157.06937962 134.58599431 152.14862633 140.35159588 C145.30901755 147.03881177 136.10418554 146.71919725 127.09204102 146.81811523 C125.99355835 146.83748138 124.89507568 146.85684753 123.76330566 146.87680054 C120.27921135 146.93624136 116.79508336 146.98283941 113.31079102 147.02905273 C110.93838134 147.06726518 108.56598505 147.10631878 106.19360352 147.14624023 C100.39944234 147.24191367 94.60521627 147.32607524 88.81079102 147.40405273 C89.80079102 152.84905273 89.80079102 152.84905273 90.81079102 158.40405273 C92.13079102 158.73405273 93.45079102 159.06405273 94.81079102 159.40405273 C97.27566628 161.77763633 97.85417477 163.56601876 98.74829102 166.90405273 C98.81079102 170.40405273 98.81079102 170.40405273 97.06079102 172.77905273 C93.36868401 175.44557446 90.38097649 175.53997804 85.94995117 175.58105469 C84.74505035 175.59388992 83.54014954 175.60672516 82.29873657 175.61994934 C80.99560516 175.62733627 79.69247375 175.63472321 78.34985352 175.64233398 C77.68585918 175.64640951 77.02186485 175.65048504 76.33774948 175.65468407 C72.82420922 175.67552052 69.31070776 175.68983349 65.79711914 175.69921875 C62.17321887 175.71028735 58.54993194 175.74469821 54.92624855 175.78439045 C52.1346423 175.81056276 49.34318223 175.81891098 46.55146408 175.82250023 C44.56779991 175.82972312 42.58423572 175.85615667 40.60073853 175.88288879 C39.38953339 175.87996323 38.17832825 175.87703766 36.93041992 175.87402344 C35.86691315 175.87988968 34.80340637 175.88575592 33.70767212 175.89179993 C30.05864517 175.27741412 28.38855953 174.02108764 25.81079102 171.40405273 C25.13173872 167.25428873 25.3282918 165.20821809 27.49829102 161.59155273 C29.81079102 159.40405273 29.81079102 159.40405273 32.43579102 158.71655273 C35.03681973 157.64419802 35.03681973 157.64419802 35.48022461 155.08837891 C35.6382959 154.17548096 35.79636719 153.26258301 35.95922852 152.32202148 C36.12342285 151.40573975 36.28761719 150.48945801 36.45678711 149.54541016 C36.5736084 148.83876221 36.69042969 148.13211426 36.81079102 147.40405273 C36.15933105 147.40928955 35.50787109 147.41452637 34.83666992 147.41992188 C22.15821523 147.50727561 9.4845628 147.47362562 -3.18920898 147.09155273 C-4.24285645 147.06907471 -5.29650391 147.04659668 -6.38208008 147.0234375 C-14.13338385 146.75045196 -22.62707067 146.15129301 -28.62670898 140.71655273 C-34.24667065 134.00854132 -34.62859279 126.84116226 -34.57739258 118.46508789 C-34.58264954 117.39733627 -34.58790649 116.32958466 -34.59332275 115.22947693 C-34.60647266 111.71720535 -34.59780084 108.20539104 -34.58764648 104.69311523 C-34.58966895 102.23985711 -34.59258182 99.78659958 -34.59634399 97.33334351 C-34.60076084 92.19734968 -34.5943578 87.06151266 -34.58032227 81.92553711 C-34.56324911 75.35978998 -34.57306414 68.7944113 -34.59103966 62.22867775 C-34.60191007 57.16359715 -34.59841587 52.09860304 -34.59065628 47.03351974 C-34.58866235 44.61353893 -34.59108504 42.19355013 -34.59809494 39.77357864 C-34.60576089 36.38277823 -34.59403198 32.99256372 -34.57739258 29.60180664 C-34.58346527 28.61239578 -34.58953796 27.62298492 -34.59579468 26.60359192 C-34.52657915 18.94394601 -33.80602435 11.40381668 -28.62670898 5.46655273 C-20.15177186 -0.39230058 -9.87216339 -0.03393179 0 0 Z M-25.18920898 39.40405273 C-25.33358398 53.92405273 -25.47795898 68.44405273 -25.62670898 83.40405273 C-25.69043701 87.97764648 -25.75416504 92.55124023 -25.81982422 97.26342773 C-25.84324469 101.38670037 -25.84324469 101.38670037 -25.85731506 105.51000977 C-25.86801843 107.33727979 -25.89254419 109.16450235 -25.92823792 110.99145508 C-26.64447263 123.05314794 -26.64447263 123.05314794 -21.83398438 133.60717773 C-17.29621906 137.69363272 -12.66398831 137.60204749 -6.81811523 137.72045898 C-5.91730728 137.74146667 -5.01649933 137.76247437 -4.08839417 137.78411865 C-0.97626938 137.8525074 2.13591328 137.91088424 5.24829102 137.96655273 C6.33684387 137.98640228 7.42539673 138.00625183 8.54693604 138.02670288 C33.63503756 138.4624968 58.7284672 138.60770323 83.81985474 138.69015503 C88.39976171 138.70576613 92.97947863 138.73064088 97.55929565 138.76321411 C103.04383818 138.80148465 108.52810203 138.81967162 114.01277351 138.82306671 C116.06368733 138.82753994 118.11459886 138.83885887 120.16543388 138.85738373 C123.00311069 138.88170181 125.8397413 138.8809094 128.67749023 138.87402344 C129.50423469 138.88683633 130.33097914 138.89964922 131.18277645 138.91285038 C136.86908408 138.86183829 140.23478776 137.87024068 144.81079102 134.40405273 C148.98752104 129.56542458 149.37613965 124.708934 149.26489258 118.53125 C149.26537472 117.65813392 149.26585686 116.78501783 149.26635361 115.88544369 C149.26338571 113.08002324 149.23300879 110.27568737 149.20141602 107.47045898 C149.19552935 105.73018912 149.19145204 103.98991217 149.18920898 102.24963379 C149.16830143 95.82183157 149.1124562 89.39418131 149.06079102 82.96655273 C148.97829102 68.59092773 148.89579102 54.21530273 148.81079102 39.40405273 C91.39079102 39.40405273 33.97079102 39.40405273 -25.18920898 39.40405273 Z " fill="#242637" transform="translate(38.189208984375,18.595947265625)"/>
<path d="M0 0 C0.64605471 -0.00508782 1.29210943 -0.01017564 1.95774156 -0.01541764 C4.13249549 -0.03117092 6.30721612 -0.03967476 8.48200989 -0.04811096 C10.03743197 -0.05764721 11.59285192 -0.06753827 13.14826965 -0.07775879 C18.26575698 -0.10917391 23.3832607 -0.12941566 28.50080872 -0.14796448 C29.80649917 -0.15291046 29.80649917 -0.15291046 31.13856721 -0.15795636 C39.34736145 -0.1887413 47.55615931 -0.21545076 55.76499462 -0.23237514 C66.26649664 -0.25427948 76.76748718 -0.29624007 87.2687847 -0.36581272 C94.65146072 -0.41306321 102.03399881 -0.43731019 109.4168213 -0.44457203 C113.82653056 -0.44952729 118.23566367 -0.46459514 122.64520836 -0.50431633 C126.79617706 -0.54121444 130.94624138 -0.54958245 135.09734344 -0.5363102 C136.61830833 -0.5363641 138.1393136 -0.54664084 139.66012764 -0.56806183 C152.51566283 -0.73940828 152.51566283 -0.73940828 157.23025513 2.20419312 C159.77033997 6.16062927 159.77033997 6.16062927 159.77033997 22.16062927 C102.35033997 22.16062927 44.93033997 22.16062927 -14.22966003 22.16062927 C-14.22966003 8.16062927 -14.22966003 8.16062927 -11.35466003 3.84812927 C-7.63023874 0.27664315 -5.13624616 0.0303824 0 0 Z " fill="#EFF0EF" transform="translate(27.229660034179688,27.839370727539063)"/>
<path d="M0 0 C57.42 0 114.84 0 174 0 C174.103125 14.355 174.20625 28.71 174.3125 43.5 C174.35802002 48.02138672 174.40354004 52.54277344 174.45043945 57.20117188 C174.47302246 62.75097656 174.47302246 62.75097656 174.47721863 65.35461426 C174.48486294 67.16099212 174.5023788 68.96734552 174.52787781 70.77355957 C174.5646991 73.52070976 174.56952308 76.2663104 174.56762695 79.01367188 C174.58561749 79.8093029 174.60360804 80.60493393 174.62214375 81.42467499 C174.56771066 87.35139215 172.92624479 91.51678385 169 96 C164.18929267 99.4612802 159.68484955 99.41977673 153.98022461 99.35644531 C153.08819304 99.35845853 152.19616148 99.36047174 151.27709866 99.36254597 C148.31864305 99.36548024 145.36073477 99.34693336 142.40234375 99.328125 C140.31092442 99.32552374 138.21950322 99.3241595 136.12808228 99.32395935 C130.54782142 99.31927746 124.96780517 99.29534993 119.38762283 99.2665062 C114.79960025 99.24455602 110.2115716 99.23228659 105.62351513 99.21979427 C92.3716141 99.1827926 79.12008362 99.11088802 65.86845398 99.0195694 C63.19473739 99.00132855 60.52101645 98.98419649 57.84729004 98.96746826 C49.84608708 98.91622147 41.84561654 98.84730273 33.84500122 98.73352051 C31.67047517 98.70303376 29.4958867 98.67669417 27.32125854 98.65466309 C24.4024708 98.6222267 21.48476255 98.57064486 18.56640625 98.51171875 C17.75039948 98.50530869 16.9343927 98.49889862 16.09365845 98.49229431 C9.7480396 98.32312778 6.84635673 96.8145938 2.39315796 92.43800354 C-0.77734551 88.54575096 -0.67529732 85.00978013 -0.56762695 80.14892578 C-0.56822963 79.26601805 -0.5688323 78.38311031 -0.56945324 77.4734478 C-0.56573648 74.63008363 -0.52773664 71.78838142 -0.48828125 68.9453125 C-0.48092498 67.18417143 -0.47582707 65.42301943 -0.47302246 63.66186523 C-0.44686405 57.14940954 -0.37705743 50.63718825 -0.3125 44.125 C-0.209375 29.56375 -0.10625 15.0025 0 0 Z M7 7 C6.8257908 47.51684471 6.8257908 47.51684471 8 88 C11.56572574 91.56572574 12.26191293 91.37602957 17.10435486 91.38095093 C18.38164963 91.3894104 19.6589444 91.39786987 20.97494507 91.40658569 C22.39337285 91.40075255 23.81179938 91.39460803 25.23022461 91.38818359 C26.72169886 91.39224801 28.2131701 91.39758916 29.70463562 91.40411377 C33.75839113 91.41780996 37.81191801 91.412479 41.8656776 91.40297651 C46.10524669 91.39539039 50.34479599 91.40242274 54.58436584 91.40713501 C61.70561239 91.41259622 68.82676566 91.40539201 75.94799805 91.39111328 C84.1828929 91.3747923 92.41756488 91.38006974 100.65245432 91.3965925 C107.71920491 91.41020445 114.78588838 91.41212827 121.85264784 91.40427649 C126.07480082 91.39959756 130.29684903 91.39898101 134.51899529 91.40888596 C138.48924634 91.41754892 142.45921001 91.41154615 146.42943001 91.39420319 C147.88711189 91.39023446 149.34481794 91.391379 150.80249023 91.39799118 C152.79120524 91.4061808 154.77997306 91.39409292 156.7686615 91.38095093 C157.88197814 91.37981985 158.99529478 91.37868877 160.14234829 91.37752342 C163.35792352 90.95271484 164.75152406 90.31744772 167 88 C167.38190597 85.27210539 167.50655883 82.95033003 167.45410156 80.22387695 C167.45482477 79.01900399 167.45482477 79.01900399 167.45556259 77.78979015 C167.45257616 75.18883691 167.42211447 72.58902942 167.390625 69.98828125 C167.38474407 68.38294019 167.38066323 66.77759148 167.37841797 65.17224121 C167.35744394 59.21887719 167.301599 53.26567735 167.25 47.3125 C167.1675 34.009375 167.085 20.70625 167 7 C114.2 7 61.4 7 7 7 Z " fill="#BCCCE4" transform="translate(13,58)"/>
<path d="M0 0 C41.58 0 83.16 0 126 0 C126 2.31 126 4.62 126 7 C84.42 7 42.84 7 0 7 C0 4.69 0 2.38 0 0 Z " fill="#E0E5EB" transform="translate(36,133)"/>
<path d="M0 0 C4.15795237 1.78197959 7.26117011 3.86518514 9.2890625 8.09375 C11.19030748 14.88391064 11.02206582 22.05866419 7.85546875 28.40234375 C5.13284734 32.58625914 2.53800368 34.47561913 -2.08203125 36.33984375 C-5.95059221 36.97144554 -7.6666058 36.53924796 -11.20703125 34.83984375 C-15.8197809 30.8287571 -18.72367555 25.02914503 -19.3203125 18.88671875 C-19.49251953 12.39723294 -19.10243843 8.52405301 -15.08203125 3.33984375 C-10.2383162 -0.85804262 -6.20413649 -1.96716523 0 0 Z " fill="#EBEFF3" transform="translate(159.08203125,81.66015625)"/>
<path d="M0 0 C-1.51947499 3.36748512 -2.52100842 4.60840337 -6 6 C-6.515625 5.505 -7.03125 5.01 -7.5625 4.5 C-10.90028661 2.44597747 -13.14399755 2.58685688 -17 3 C-20.1850357 4.76015131 -20.83296972 5.49890916 -22 9 C-22.53380005 13.5941808 -22.69943098 17.55415763 -20.0625 21.5 C-18.58606908 23.29981391 -18.58606908 23.29981391 -17 25 C-12.97946193 25.26007597 -12.97946193 25.26007597 -9 25 C-7.26973898 23.52109931 -7.26973898 23.52109931 -6 22 C-3.8125 22.3125 -3.8125 22.3125 -2 23 C-1.67 24.32 -1.34 25.64 -1 27 C-7.21825481 32.07278682 -11.01521357 32.63646848 -19 32 C-24.41511093 29.8109126 -27.08208598 25.73748011 -29.75 20.6875 C-31.43292287 15.72287752 -32.19049501 11.68963687 -30.05078125 6.85546875 C-22.27286594 -6.36944088 -12.72226113 -5.15332097 0 0 Z " fill="#E9EEF1" transform="translate(60,85)"/>
<path d="M0 0 C2.50560524 0.81374702 4.64122514 1.79551922 7 3 C6.34 4.98 5.68 6.96 5 9 C1.125 8.125 1.125 8.125 0 7 C-2.67058851 6.85884839 -5.32432238 6.95752893 -8 7 C-8.2113453 9.3912295 -8.2113453 9.3912295 -7 12 C-4.85551474 13.20739927 -2.64929874 14.06569763 -0.3671875 14.984375 C3.28164137 16.54987914 5.34115604 18.00027861 8 21 C8.79094206 25.982935 8.53514649 27.94881939 6.25 32.4375 C3.47839092 35.59405478 1.88506301 35.79092937 -2.1484375 36.23828125 C-7.60484896 36.42016163 -10.72684652 35.73900929 -15 32 C-15.33 31.01 -15.66 30.02 -16 29 C-14.6875 26.8125 -14.6875 26.8125 -13 25 C-12.34 25 -11.68 25 -11 25 C-10.62875 25.639375 -10.2575 26.27875 -9.875 26.9375 C-6.9874932 30.11375748 -4.19997357 29.7245919 0 30 C0.33 28.02 0.66 26.04 1 24 C-1.6687682 21.5632986 -4.0865896 20.63223303 -7.5 19.6875 C-11.00609141 18.57848921 -11.97086326 18.03197935 -14.5625 15.1875 C-16.18910912 11.58067108 -16.88830909 9.87625785 -16 6 C-11.76857286 0.2442078 -6.88879523 -1.2712188 0 0 Z " fill="#E9EEF2" transform="translate(80,81)"/>
<path d="M0 0 C3.625 1.5 3.625 1.5 6 3 C5.48474397 8.28137429 3.74522883 11.57221156 1 16 C1.78375 16.268125 2.5675 16.53625 3.375 16.8125 C6 18 6 18 8 21 C8.34342312 25.25844672 8.43989287 27.93499621 6.8125 31.875 C4.14707594 34.99997993 1.94600853 35.79856474 -2.11328125 36.21875 C-7.11383333 36.42045294 -10.77726293 35.95591595 -15 33 C-16.0625 31 -16.0625 31 -16 29 C-14.5625 27.25 -14.5625 27.25 -13 26 C-10 27 -10 27 -9 29 C-4.34947128 29.26932521 -4.34947128 29.26932521 0 28 C0.65772428 24.97065509 0.65772428 24.97065509 1 22 C-3.455 21.01 -3.455 21.01 -8 20 C-8.48792229 16.74718472 -8.40014561 14.65286916 -6.6640625 11.8203125 C-5.15782398 9.8332091 -3.61782175 7.8970886 -2 6 C-4.64 6.33 -7.28 6.66 -10 7 C-10 7.66 -10 8.32 -10 9 C-11.32 8.67 -12.64 8.34 -14 8 C-14.33 6.35 -14.66 4.7 -15 3 C-10.35718649 -0.71425081 -5.68339019 -0.70702462 0 0 Z " fill="#E7ECF1" transform="translate(109,81)"/>
<path d="M0 0 C10.56 0 21.12 0 32 0 C33 2 33 2 33 12 C21.45 12 9.9 12 -2 12 C-1.34 8.04 -0.68 4.08 0 0 Z " fill="#E7EDF2" transform="translate(85,165)"/>
<path d="M0 0 C2.15234375 1.5703125 2.15234375 1.5703125 4 4 C4.53125 7.49609375 4.53125 7.49609375 4.5 11.4375 C4.5103125 12.73558594 4.520625 14.03367187 4.53125 15.37109375 C3.92851322 19.48831776 2.99914493 21.16152355 0 24 C-3.5 24.6875 -3.5 24.6875 -7 24 C-10.27516223 21.06075184 -10.83729923 19.22486049 -11.4140625 14.8828125 C-11.63949809 9.65033381 -11.74607854 6.16300478 -8.875 1.6875 C-5.4870767 -0.30106368 -3.85742989 -0.73865679 0 0 Z " fill="#2E3A58" transform="translate(158,87)"/>
<path d="M0 0 C3.51199418 2.22426298 4.74902618 4.05462103 6 8 C6.268125 8.70125 6.53625 9.4025 6.8125 10.125 C6.874375 10.74375 6.93625 11.3625 7 12 C5.75 13.4375 5.75 13.4375 4 15 C2.96642853 16.64605826 1.95939668 18.30963442 1 20 C0.01 19.67 -0.98 19.34 -2 19 C-3.1875 15.9375 -3.1875 15.9375 -4 13 C-4.66 13 -5.32 13 -6 13 C-6.928125 14.485 -6.928125 14.485 -7.875 16 C-8.57625 16.99 -9.2775 17.98 -10 19 C-11.32 19 -12.64 19 -14 19 C-15.95218444 15.72311897 -16.27063566 13.22930273 -16.25 9.4375 C-16.25515625 8.48746094 -16.2603125 7.53742188 -16.265625 6.55859375 C-16 4 -16 4 -14 1 C-11.5625 0.5 -11.5625 0.5 -9 1 C-7.18116991 3.3832946 -6 4.95818337 -6 8 C-5.34 8 -4.68 8 -4 8 C-3.71125 7.05125 -3.4225 6.1025 -3.125 5.125 C-2 2 -2 2 0 0 Z " fill="#21283C" transform="translate(176,173)"/>
<path d="M0 0 C0 11.55 0 23.1 0 35 C-2.31 35 -4.62 35 -7 35 C-6.67 26.42 -6.34 17.84 -6 9 C-7.98 9.99 -7.98 9.99 -10 11 C-10.99 11 -11.98 11 -13 11 C-13 8.69 -13 6.38 -13 4 C-11.59248779 3.13083113 -10.1735479 2.28014851 -8.75 1.4375 C-7.96109375 0.96183594 -7.1721875 0.48617187 -6.359375 -0.00390625 C-4 -1 -4 -1 0 0 Z " fill="#E9EEF2" transform="translate(134,82)"/>
<path d="M0 0 C23.43 0 46.86 0 71 0 C71 0.33 71 0.66 71 1 C55.82 1 40.64 1 25 1 C25 2.65 25 4.3 25 6 C26.65 6 28.3 6 30 6 C30 6.33 30 6.66 30 7 C22.64936254 7.05062952 15.29876989 7.08570377 7.94799805 7.10986328 C5.44635335 7.11993288 2.94472045 7.13358934 0.44311523 7.15087891 C-3.14862986 7.17508492 -6.7402196 7.18647346 -10.33203125 7.1953125 C-12.01496025 7.21079636 -12.01496025 7.21079636 -13.73188782 7.22659302 C-14.77274033 7.22674408 -15.81359283 7.22689514 -16.88598633 7.22705078 C-17.80309891 7.231492 -18.72021149 7.23593323 -19.66511536 7.24050903 C-22 7 -22 7 -25 5 C-23.63065308 5.01571045 -23.63065308 5.01571045 -22.23364258 5.03173828 C-18.83241225 5.06591281 -15.43136558 5.09094384 -12.0300293 5.10986328 C-10.56059888 5.11989352 -9.09118829 5.13352101 -7.62182617 5.15087891 C-5.50434463 5.17525898 -3.38712801 5.18651286 -1.26953125 5.1953125 C0.00301514 5.20578613 1.27556152 5.21625977 2.58666992 5.22705078 C5.85835171 5.00942228 8.06957366 4.41502625 11 3 C11 2.67 11 2.34 11 2 C9.01432292 2.06510417 7.02864583 2.13020833 5.04296875 2.1953125 C3 2 3 2 0 0 Z " fill="#A6B6D1" transform="translate(45,149)"/>
<path d="M0 0 C17.16 0 34.32 0 52 0 C52 0.99 52 1.98 52 3 C34.84 3 17.68 3 0 3 C0 2.01 0 1.02 0 0 Z " fill="#EAF1F7" transform="translate(74,182)"/>
<path d="M0 0 C1.875 0.9375 1.875 0.9375 3.875 3.9375 C4.17578125 6.27734375 4.17578125 6.27734375 4.1875 8.875 C4.21263672 10.15697266 4.21263672 10.15697266 4.23828125 11.46484375 C3.81004169 14.3796356 2.79790461 15.75076679 0.875 17.9375 C-2.18061782 16.88383868 -3.10724736 15.96539701 -4.875 13.1875 C-6.20951159 9.71776987 -6.68363868 7.60855416 -6.125 3.9375 C-3.22987445 -0.09499631 -3.22987445 -0.09499631 0 0 Z " fill="#1F2230" transform="translate(11.125,175.0625)"/>
<path d="M0 0 C2.74315377 0.21101183 4.54793489 0.7136921 6.875 2.1875 C8 4 8 4 7.875 6.9375 C7.01136761 9.96021338 6.06261012 11.66835378 4 14 C-0.875 13.125 -0.875 13.125 -2 12 C-2.1245486 10.35769636 -2.17568524 8.70947724 -2.1875 7.0625 C-2.20167969 6.16660156 -2.21585938 5.27070313 -2.23046875 4.34765625 C-2 2 -2 2 0 0 Z " fill="#26283A" transform="translate(147,175)"/>
<path d="M0 0 C2 0.0625 2 0.0625 4 1 C6.58117562 5.129881 6.63298617 10.26191232 6 15 C5.34 15.66 4.68 16.32 4 17 C0.46428571 16.46428571 0.46428571 16.46428571 -1 15 C-1.28807277 12.86127792 -1.50614083 10.71290157 -1.6875 8.5625 C-1.84798828 6.80099609 -1.84798828 6.80099609 -2.01171875 5.00390625 C-2 2 -2 2 0 0 Z " fill="#20222F" transform="translate(20,173)"/>
<path d="M0 0 C3.125 0.1875 3.125 0.1875 6.125 2.1875 C5.375 8.9375 5.375 8.9375 3.125 11.1875 C0.75 11.625 0.75 11.625 -1.875 11.1875 C-4.1875 8.6875 -4.1875 8.6875 -5.875 6.1875 C-3.58512007 0.23381218 -3.58512007 0.23381218 0 0 Z " fill="#31303A" transform="translate(63.875,33.8125)"/>
<path d="M0 0 C3.0625 0.3125 3.0625 0.3125 5 1.5 C6.0625 3.3125 6.0625 3.3125 5.9375 5.8125 C4.99624198 8.50180863 4.46223442 9.76981359 2.0625 11.3125 C-0.77762798 11.1704936 -2.44927239 10.63798508 -4.8125 9.0625 C-5.9375 7.3125 -5.9375 7.3125 -5.75 4.75 C-4.56703794 1.20111381 -3.75106681 0.39904966 0 0 Z " fill="#2A2A31" transform="translate(45.9375,33.6875)"/>
<path d="M0 0 C1.875 0.9375 1.875 0.9375 3.875 3.9375 C3.84356707 6.67740408 3.32021663 9.22167854 2.875 11.9375 C0.625 12.6875 0.625 12.6875 -2.125 12.9375 C-4.89839233 10.98862972 -5.95686557 9.77817217 -6.625 6.4375 C-5.87922217 2.70861083 -4.07583429 -0.11987748 0 0 Z " fill="#282C3F" transform="translate(52.125,175.0625)"/>
<path d="M0 0 C6.39075249 -0.36174071 6.39075249 -0.36174071 9 1.1875 C10 3 10 3 9.875 5.5 C8.93374198 8.18930863 8.39973442 9.45731359 6 11 C2.65807308 10.75546876 1.39456443 10.39456443 -1 8 C-1.33333333 2.66666667 -1.33333333 2.66666667 0 0 Z " fill="#2D2D38" transform="translate(24,34)"/>
<path d="M0 0 C2.4375 0.8125 2.4375 0.8125 4.4375 2.8125 C4.7778296 6.01159824 4.95898335 8.0042008 3.1875 10.75 C1.4375 11.8125 1.4375 11.8125 -0.5625 11.6875 C-2.89501907 10.66702291 -4.077466 9.8915476 -5.5625 7.8125 C-5.99951584 4.89906107 -5.96032069 3.44063794 -4.375 0.9375 C-2.5625 -0.1875 -2.5625 -0.1875 0 0 Z " fill="#262C3D" transform="translate(39.5625,176.1875)"/>
<path d="M0 0 C2.5625 0.3125 2.5625 0.3125 4.4375 1.5625 C5.5625 3.3125 5.5625 3.3125 5.4375 5.375 C4.5625 7.3125 4.5625 7.3125 1.5625 9.3125 C-1.75990324 8.9883631 -3.04526303 8.70473697 -5.4375 6.3125 C-4.97290188 2.59571507 -3.94688427 0.5060108 0 0 Z " fill="#2D2D35" transform="translate(139.4375,34.6875)"/>
<path d="M0 0 C4.55555556 0.55555556 4.55555556 0.55555556 6 2 C6.04080783 3.99958364 6.04254356 6.00045254 6 8 C2.625 8.625 2.625 8.625 -1 9 C-1.66 8.34 -2.32 7.68 -3 7 C-2.67028521 3.70285207 -2.3773161 2.3773161 0 0 Z " fill="#302F32" transform="translate(155,34)"/>
<path d="M0 0 C2.5625 0.1875 2.5625 0.1875 4.5625 2.1875 C4.1875 5.3125 4.1875 5.3125 3.5625 8.1875 C1.25 8.875 1.25 8.875 -1.4375 9.1875 C-3.3125 8.0625 -3.3125 8.0625 -4.4375 6.1875 C-3.87661439 0.29820111 -3.87661439 0.29820111 0 0 Z " fill="#2B2A33" transform="translate(172.4375,34.8125)"/>
<path d="M0 0 C7.59 0 15.18 0 23 0 C20 3 20 3 17.82348633 3.34057617 C17.00130615 3.32486572 16.17912598 3.30915527 15.33203125 3.29296875 C14.43935547 3.28330078 13.54667969 3.27363281 12.62695312 3.26367188 C11.23379883 3.2259668 11.23379883 3.2259668 9.8125 3.1875 C8.87212891 3.17396484 7.93175781 3.16042969 6.96289062 3.14648438 C4.64134962 3.11113096 2.32096347 3.06178674 0 3 C0 2.01 0 1.02 0 0 Z " fill="#D7E0E9" transform="translate(74,182)"/>
<path d="M0 0 C0.33 1.32 0.66 2.64 1 4 C1.66 4 2.32 4 3 4 C3 8.62 3 13.24 3 18 C2.01 18 1.02 18 0 18 C0 12.06 0 6.12 0 0 Z " fill="#252A3C" transform="translate(193,99)"/>
<path d="M0 0 C2 0.0625 2 0.0625 4 1 C5.3125 3.375 5.3125 3.375 6 6 C5.67 6.99 5.34 7.98 5 9 C5 8.34 5 7.68 5 7 C3.02 7 1.04 7 -1 7 C-1.625 4.625 -1.625 4.625 -2 2 C-1.34 1.34 -0.68 0.68 0 0 Z " fill="#242838" transform="translate(20,173)"/>
<path d="M0 0 C2.64 0 5.28 0 8 0 C7.34 1.98 6.68 3.96 6 6 C4.125 5.8125 4.125 5.8125 2 5 C0.75 2.4375 0.75 2.4375 0 0 Z " fill="#D6E0E6" transform="translate(79,84)"/>
<path d="M0 0 C0.33 1.32 0.66 2.64 1 4 C1.66 4 2.32 4 3 4 C3 6.64 3 9.28 3 12 C2.34 12 1.68 12 1 12 C1 13.98 1 15.96 1 18 C0.67 18 0.34 18 0 18 C0 12.06 0 6.12 0 0 Z " fill="#222A3C" transform="translate(193,49)"/>
<path d="M0 0 C1.134375 0.020625 2.26875 0.04125 3.4375 0.0625 C3.7675 0.7225 4.0975 1.3825 4.4375 2.0625 C2.1275 2.3925 -0.1825 2.7225 -2.5625 3.0625 C-2.8925 4.0525 -3.2225 5.0425 -3.5625 6.0625 C-3.94468767 4.40635343 -4.27645102 2.73792976 -4.5625 1.0625 C-3.5625 0.0625 -3.5625 0.0625 0 0 Z " fill="#23283B" transform="translate(129.5625,162.9375)"/>
<path d="M0 0 C2.64 0 5.28 0 8 0 C8 0.66 8 1.32 8 2 C4.62902617 3.49821059 2.79557881 4 -1 4 C-0.67 2.68 -0.34 1.36 0 0 Z " fill="#2A314A" transform="translate(72,87)"/>
<path d="M0 0 C1.32 0 2.64 0 4 0 C2.52307692 4.67692308 2.52307692 4.67692308 -0.125 6.3125 C-1.053125 6.6528125 -1.053125 6.6528125 -2 7 C-2 6.01 -2 5.02 -2 4 C-1.34 4 -0.68 4 0 4 C0 2.68 0 1.36 0 0 Z " fill="#2C3247" transform="translate(103,87)"/>
<path d="M0 0 C0.78375 0.04125 1.5675 0.0825 2.375 0.125 C-2.25 5 -2.25 5 -5.625 6.125 C-4.86443086 2.32215429 -4.27658992 0.20364714 0 0 Z " fill="#252E48" transform="translate(153.625,87.875)"/>
<path d="M0 0 C0.33 0 0.66 0 1 0 C0.50769231 6.4 0.50769231 6.4 -2.0625 9.4375 C-3.0215625 10.2109375 -3.0215625 10.2109375 -4 11 C-4.33 10.01 -4.66 9.02 -5 8 C-4.34 8 -3.68 8 -3 8 C-1.92474806 5.34771188 -0.90543849 2.71631546 0 0 Z " fill="#B9C7DF" transform="translate(185,143)"/>
<path d="M0 0 C1.9375 0.25 1.9375 0.25 4 1 C4.66 1.99 5.32 2.98 6 4 C5.67 4.99 5.34 5.98 5 7 C4.566875 6.38125 4.13375 5.7625 3.6875 5.125 C2.00259517 2.7802755 2.00259517 2.7802755 -1 1 C-0.67 0.67 -0.34 0.34 0 0 Z " fill="#292B3A" transform="translate(9,175)"/>
</svg>
